<svg width="56" height="70" viewBox="0 0 56 70" fill="none" xmlns="http://www.w3.org/2000/svg">
<path d="M52.6401 0H36.9601C35.1076 0 33.6001 1.50752 33.6001 3.36V5.6C31.1294 5.6 29.1201 7.60928 29.1201 10.08C29.1201 12.5507 31.1294 14.56 33.6001 14.56V20.16H42.5601V17.92C42.5601 16.6846 43.5648 15.68 44.8001 15.68C46.0355 15.68 47.0401 16.6846 47.0401 17.92V20.16H52.6401C54.4926 20.16 56.0001 18.6525 56.0001 16.8V3.36C56.0001 1.50752 54.4926 0 52.6401 0ZM53.7601 16.8C53.7601 17.4171 53.2584 17.92 52.6401 17.92H49.2801C49.2801 15.4493 47.2708 13.44 44.8001 13.44C42.3294 13.44 40.3201 15.4493 40.3201 17.92H35.8401V12.32H33.6001C32.3648 12.32 31.3601 11.3154 31.3601 10.08C31.3601 8.84464 32.3648 7.84 33.6001 7.84H35.8401V3.36C35.8401 2.74288 36.3419 2.24 36.9601 2.24H52.6401C53.2584 2.24 53.7601 2.74288 53.7601 3.36V16.8Z" fill="white"/>
<path d="M33.6 22.3997C31.1293 22.3997 29.12 24.409 29.12 26.8797H24.64V21.2797H22.4C21.1646 21.2797 20.16 20.2751 20.16 19.0397C20.16 17.8044 21.1646 16.7997 22.4 16.7997H24.64V6.71973H21.6373C9.70704 6.71973 0 16.4268 0 28.357C0 34.8732 2.89296 40.9772 7.93632 45.1033L12.32 48.6906V51.7269C11.0197 52.1906 10.08 53.4226 10.08 54.8809C10.08 56.4298 11.1384 57.7245 12.5664 58.1109C12.4107 58.4973 12.32 58.9173 12.32 59.3597C12.32 60.8404 13.2888 62.0858 14.6205 62.5327C15.0842 66.4169 18.3938 69.4397 22.4 69.4397C26.4062 69.4397 29.7158 66.4169 30.1795 62.5327C31.5112 62.0858 32.48 60.8404 32.48 59.3597C32.48 58.9173 32.3893 58.4973 32.2336 58.1098C33.6616 57.7223 34.72 56.4287 34.72 54.8797C34.72 53.4215 33.7803 52.1895 32.48 51.7258V48.6895L36.8637 45.1021C41.907 40.9772 44.8 34.8732 44.8 28.357V26.8797H38.08C38.08 24.409 36.0707 22.3997 33.6 22.3997ZM21.6373 8.95973H22.4V14.5597C19.9293 14.5597 17.92 16.569 17.92 19.0397C17.92 21.5104 19.9293 23.5197 22.4 23.5197V26.8797H17.92C17.92 24.409 15.9107 22.3997 13.44 22.3997C10.9693 22.3997 8.96 24.409 8.96 26.8797H2.296C3.05312 16.8714 11.4386 8.95973 21.6373 8.95973ZM9.35424 43.3695C5.02992 39.8314 2.4696 34.6727 2.25568 29.1197H11.2V26.8797C11.2 25.6444 12.2046 24.6397 13.44 24.6397C14.6754 24.6397 15.68 25.6444 15.68 26.8797V29.1197H22.4V33.5997C19.9293 33.5997 17.92 35.609 17.92 38.0797C17.92 40.5505 19.9293 42.5597 22.4 42.5597V51.5197H14.56V47.6289L9.35424 43.3695ZM22.4 67.1997C19.6963 67.1997 17.4339 65.2722 16.9131 62.7197H27.8869C27.3661 65.2722 25.1037 67.1997 22.4 67.1997ZM29.12 60.4797H15.68C15.0618 60.4797 14.56 59.9769 14.56 59.3597C14.56 58.7426 15.0618 58.2397 15.68 58.2397H29.12C29.7382 58.2397 30.24 58.7426 30.24 59.3597C30.24 59.9769 29.7382 60.4797 29.12 60.4797ZM31.36 55.9997H29.12H15.68H13.44C12.8218 55.9997 12.32 55.4969 12.32 54.8797C12.32 54.2626 12.8218 53.7597 13.44 53.7597H31.36C31.9782 53.7597 32.48 54.2626 32.48 54.8797C32.48 55.4969 31.9782 55.9997 31.36 55.9997ZM35.4458 43.3695L30.24 47.6289V51.5197H24.64V40.3197H22.4C21.1646 40.3197 20.16 39.3151 20.16 38.0797C20.16 36.8444 21.1646 35.8397 22.4 35.8397H24.64V29.1197H31.36V26.8797C31.36 25.6444 32.3646 24.6397 33.6 24.6397C34.8354 24.6397 35.84 25.6444 35.84 26.8797V29.1197H42.5443C42.3304 34.6727 39.7701 39.8314 35.4458 43.3695Z" fill="white"/>
</svg>
