<svg width="56" height="56" viewBox="0 0 56 56" fill="none" xmlns="http://www.w3.org/2000/svg">
<path d="M37.9999 21.9856H37.5336C37.3583 21.4285 37.1337 20.8875 36.8613 20.367C37.8575 19.6005 38.1374 18.1333 37.1923 17.2073C37.1923 17.2073 35.7783 15.7932 35.7783 15.7932C34.8515 14.8519 33.3878 15.1245 32.6186 16.1239C32.0986 15.8518 31.5576 15.6272 31 15.4514C31.1559 14.1941 30.3324 12.9812 28.9999 12.9857C29 12.9856 27 12.9856 27 12.9856C25.8969 12.9856 25 13.8826 25 14.9856V15.4514C24.4424 15.6272 23.9013 15.8518 23.3813 16.1238C22.6141 15.1274 21.1461 14.8472 20.2216 15.7933C20.2217 15.7932 18.8076 17.2073 18.8076 17.2073C18.0278 17.9871 18.0278 19.2561 18.8076 20.0359L19.1382 20.3669C18.8662 20.887 18.6416 21.428 18.4658 21.9856C17.2085 21.8296 15.9956 22.6532 16 23.9856C16 23.9856 16 25.9856 16 25.9856C16 27.0886 16.897 27.9856 18 27.9856H18.4658C18.6416 28.5432 18.8662 29.0842 19.1382 29.6042C18.1426 30.3712 17.8625 31.8378 18.8077 32.7639C18.8076 32.7639 20.2217 34.1779 20.2217 34.1779C21.1499 35.1207 22.6122 34.8471 23.3813 33.8473C23.9013 34.1194 24.4424 34.344 25 34.5197C24.844 35.7771 25.6676 36.99 27 36.9855C27 36.9856 29 36.9856 29 36.9856C30.3326 36.9858 31.1559 35.782 30.9999 34.5197C31.5576 34.344 32.0986 34.1194 32.6186 33.8474C33.3853 34.8433 34.8525 35.1227 35.7783 34.1779C35.7783 34.1779 37.1923 32.7639 37.1923 32.7639C38.1341 31.8355 37.8608 30.3729 36.8612 29.6043C37.1337 29.0837 37.3583 28.5427 37.5336 27.9856C38.7911 28.1416 40.0044 27.3183 39.9999 25.9855C39.9999 25.9856 39.9999 23.9856 39.9999 23.9856C39.9999 22.8826 39.103 21.9856 37.9999 21.9856ZM37.9999 25.9856C37.2315 26.0196 36.0196 25.7384 35.7939 26.7644C35.5956 27.6379 35.2499 28.47 34.767 29.2375C34.518 29.6326 34.5761 30.1472 34.9062 30.4773L35.7783 31.3498L34.3637 32.7639C33.803 32.248 33.1287 31.1853 32.2514 31.7527C31.4853 32.2356 30.6533 32.5808 29.7783 32.78C29.3232 32.8835 29 33.2883 29 33.7551V34.9856H27V33.7551C27 33.2883 26.6767 32.8835 26.2217 32.78C25.3467 32.5808 24.5146 32.2356 23.7485 31.7527C22.8727 31.1824 22.1901 32.2556 21.6357 32.7639C21.6357 32.7639 20.2217 31.3493 20.2217 31.3493L21.0937 30.4773C21.4238 30.1472 21.4819 29.6321 21.2329 29.237C20.75 28.4709 20.4048 27.6389 20.2056 26.7639C20.102 26.3088 19.6973 25.9856 19.2305 25.9856H18V23.9856C18.7682 23.9518 19.979 24.2324 20.2056 23.2072C20.4048 22.3323 20.75 21.5002 21.2329 20.7341C21.4819 20.3391 21.4238 19.824 21.0938 19.4939L20.2217 18.6213L21.6362 17.2073L22.5083 18.0794C22.8384 18.4099 23.3535 18.4675 23.7485 18.2185C24.5146 17.7356 25.3467 17.3904 26.2217 17.1912C27.2497 16.9656 26.9648 15.7436 27 14.9856C27 14.9856 29 14.9856 29 14.9856C29.0339 15.7541 28.7532 16.9644 29.7783 17.1912C30.6533 17.3904 31.4853 17.7356 32.2514 18.2185C32.6484 18.4675 33.1626 18.4099 33.4917 18.0794L34.3642 17.2073L35.7783 18.6218L34.9062 19.4939C34.5761 19.824 34.518 20.3386 34.7671 20.7336C35.25 21.5012 35.5957 22.3332 35.7939 23.2068C36.0185 24.2357 37.2419 23.9503 38 23.9856C38 23.9856 37.9999 25.9856 37.9999 25.9856ZM34 24.9855C33.7193 32.9251 22.2815 32.9263 22.0001 24.9857C21.9212 20.8396 26.3661 17.8329 30.1894 19.3923C31.4084 19.885 30.7043 21.7108 29.4707 21.2586C26.9193 20.2149 23.9477 22.2159 24 24.9855C24.1673 30.2713 31.8327 30.2707 32 24.9856C32.1021 24.0443 31.0601 22.7459 32.3007 22.2224C33.8231 21.7827 33.9541 23.95 34 24.9855ZM28.8935 8.0086C17.0528 7.63037 5.7834 14.1229 0.122625 24.5056C-0.0409548 24.8049 -0.0409551 25.1667 0.123105 25.4661C4.16758 32.8482 11.0963 38.3809 19.1764 40.7178C19.7983 41.9754 20.1431 43.3945 20.1431 44.8835V47.9855C20.1431 48.6781 20.4972 49.2888 21.0336 49.6479C21.3686 53.198 24.3637 55.9855 28 55.9855C31.6362 55.9855 34.6314 53.198 34.9664 49.6479C35.5027 49.2888 35.8569 48.6781 35.8569 47.9855V44.8835C35.8569 43.3988 36.2079 41.976 36.8413 40.7083C44.9251 38.3687 51.8472 32.839 55.8773 25.4651C56.0409 25.1662 56.0409 24.8044 55.8773 24.5056C50.4647 14.617 40.1069 8.29474 28.8935 8.0086ZM2.14604 24.9851C5.48509 19.1429 10.7052 14.6887 16.8089 12.2049C9.11172 18.6915 9.11198 31.2919 16.8667 37.8048C10.7038 35.3106 5.46603 30.7831 2.14604 24.9851ZM28 53.9855C25.5855 53.9855 23.5657 52.2648 23.1011 49.9855H32.8989C32.4342 52.2648 30.4144 53.9855 28 53.9855ZM37.7089 36.3991C35.7347 38.0839 34.4564 40.4252 34.0291 42.9855H26.1001C24.7891 43.0024 24.7844 44.9661 26.1001 44.9855C26.1001 44.9855 33.8569 44.9855 33.8569 44.9855V47.9855H22.143V44.8835C22.1305 41.6062 20.7898 38.5334 18.3325 36.4343C8.3373 28.0266 13.2862 11.5635 26.2809 10.0814C40.9714 8.49694 48.9201 26.7311 37.7089 36.3991ZM39.1299 37.8041C46.8295 31.3566 46.9065 18.8895 39.3347 12.3157C39.2871 12.2729 39.2346 12.2383 39.1865 12.1961C45.2826 14.6754 50.5067 19.1318 53.8544 24.9861C50.5423 30.7827 45.3023 35.3108 39.1299 37.8041ZM29 0.985676C29 0.985676 29 3.98567 29 3.98563C28.9777 5.30062 27.0221 5.2992 27 3.98567V0.985676C27.0222 -0.329274 28.9779 -0.327844 29 0.985676ZM43.1586 5.08039C43.1586 5.08039 41.4379 7.5379 41.4379 7.53785C40.678 8.60714 39.0561 7.4627 39.7992 6.39044L41.5199 3.93293C42.2761 2.86574 43.9028 4.0059 43.1586 5.08039ZM14.48 3.93293L16.2007 6.39044C16.5171 6.84308 16.4072 7.46661 15.9551 7.7835C15.5073 8.0975 14.8812 7.99335 14.562 7.5379L12.8413 5.08039C12.5249 4.62775 12.6348 4.00422 13.0869 3.68733C13.5405 3.37141 14.1631 3.48128 14.48 3.93293Z" fill="white"/>
</svg>
