<svg width="56" height="55" viewBox="0 0 56 55" fill="none" xmlns="http://www.w3.org/2000/svg">
<path d="M43.4017 27.9699C43.1387 27.9699 42.8756 27.8822 42.7003 27.6191L42.0865 26.83C41.4728 26.0409 41.3851 24.9887 41.8235 24.1119C41.9988 23.7612 42.1742 23.4105 42.2619 22.9721C42.6126 22.0076 43.4017 21.3939 44.4539 21.2185L47.2596 20.7801C47.698 20.6924 48.0488 20.3417 48.0488 19.9033V17.9744C48.0488 17.536 47.698 17.1852 47.2596 17.0976L44.4539 16.6592C43.4894 16.4838 42.6126 15.87 42.2619 14.9056C42.1742 14.5548 41.9988 14.2041 41.8235 13.8534C41.3851 12.8889 41.4728 11.8368 42.0865 11.0477L43.8401 8.6803C44.1032 8.32958 44.1032 7.8035 43.7524 7.54046L42.3496 6.22527C41.9988 5.87455 41.4728 5.87455 41.122 6.13759L38.8424 7.8035C38.0533 8.41726 36.9134 8.50494 36.0366 8.06654C35.6859 7.89118 35.3352 7.71582 34.9845 7.62814C34.02 7.27742 33.3185 6.48831 33.2309 5.52383L32.7925 2.71807C32.7048 2.27967 32.3541 1.92896 31.9157 1.92896H29.9867C29.5483 1.92896 29.1099 2.27967 29.1099 2.71807L28.6715 5.52383C28.5838 6.48831 27.8824 7.3651 26.9179 7.71582C26.5672 7.89118 26.2165 7.97886 25.8658 8.15422C24.9013 8.59262 23.8491 8.50494 23.06 7.89118L20.7803 6.22527C20.4296 5.96223 19.9035 5.96223 19.5528 6.31295L18.2376 7.62814C17.8869 7.97886 17.8869 8.41726 18.1499 8.76798L19.9035 11.1353C20.5173 11.9245 20.605 12.9766 20.1666 13.9411C19.9912 14.2918 19.9035 14.6425 19.7282 15.0809C19.3775 16.0454 18.5883 16.6592 17.5362 16.8345L14.7304 17.2729C14.292 17.3606 13.9413 17.7113 13.9413 18.1497V20.0787C13.9413 20.5171 14.292 20.8678 14.7304 20.9555L17.5362 21.3939C18.5007 21.5692 19.3775 22.183 19.7282 23.1475C19.9035 23.5859 19.9912 23.9366 20.1666 24.1996C20.4296 24.7257 20.5173 25.3395 20.4296 25.8655C20.3419 26.3916 19.9035 26.6547 19.3775 26.567C18.8514 26.4793 18.5883 26.0409 18.676 25.5148C18.676 25.3395 18.676 25.1641 18.5883 24.9887C18.413 24.5503 18.2376 24.1119 18.0623 23.7612C17.9746 23.4105 17.6239 23.2351 17.3608 23.1475L14.5551 22.7091C13.2399 22.5337 12.2754 21.3939 12.2754 19.991V18.062C12.2754 16.7468 13.2399 15.607 14.5551 15.344L17.3608 14.9056C17.7115 14.8179 17.9746 14.6425 18.0623 14.2918C18.2376 13.8534 18.413 13.415 18.5883 13.0643C18.7637 12.8013 18.676 12.4505 18.5007 12.1875L16.7471 9.90782C15.9579 8.85566 16.0456 7.3651 17.0101 6.40063L18.413 4.99775C19.2021 3.85791 20.6927 3.77023 21.7448 4.64703L24.0245 6.31295C24.2875 6.48831 24.6382 6.57599 24.989 6.40063C25.3397 6.22527 25.7781 6.04991 26.2165 5.87455C26.5672 5.78687 26.7426 5.52383 26.8302 5.17311L27.2686 2.27967C27.444 0.964478 28.5838 0 29.9867 0H31.9157C33.2309 0 34.3707 0.964478 34.6337 2.27967L35.0721 5.08543C35.1598 5.43615 35.3352 5.69919 35.6859 5.78687C36.1243 5.96223 36.5627 6.13759 36.9134 6.31295C37.1765 6.48831 37.6149 6.40063 37.8779 6.22527L40.1576 4.55935C41.2097 3.77023 42.788 3.85791 43.7524 4.82239L45.1553 6.22527C46.1198 7.18974 46.2075 8.6803 45.4184 9.73246L43.6648 12.0998C43.4894 12.3629 43.4017 12.7136 43.5771 12.9766C43.7524 13.415 43.9278 13.8534 44.1032 14.2041C44.1908 14.5548 44.4539 14.7302 44.8046 14.8179L47.6104 15.2563C48.9256 15.4316 49.89 16.5715 49.89 17.9744V19.9033C49.89 21.2185 48.9256 22.3584 47.6104 22.6214L44.7169 22.9721C44.3662 23.0598 44.1032 23.2351 44.0155 23.5859C43.8401 24.1119 43.6648 24.4627 43.4894 24.8134C43.314 25.0764 43.4017 25.4271 43.5771 25.6902L44.1032 26.4793C44.3662 26.9177 44.2785 27.4438 43.9278 27.7068C43.7524 27.8822 43.5771 27.9699 43.4017 27.9699Z" fill="white"/>
<path d="M30.951 27.9698C25.8656 27.9698 21.7446 23.9365 21.7446 18.9387C21.7446 13.941 25.8656 9.90771 30.951 9.90771C36.0364 9.90771 40.1574 13.941 40.1574 18.9387C40.1574 23.8488 36.0364 27.9698 30.951 27.9698ZM30.951 11.6613C26.9177 11.6613 23.5859 14.9055 23.5859 18.9387C23.5859 22.972 26.9177 26.2162 30.951 26.2162C34.9843 26.2162 38.3161 22.972 38.3161 18.9387C38.3161 14.9055 34.9843 11.6613 30.951 11.6613Z" fill="white"/>
<path d="M21.6568 46.2072C21.2184 46.2072 20.8677 45.9442 20.78 45.5058C20.6046 45.0674 20.9554 44.5413 21.3938 44.3659C22.0952 44.1906 22.7966 44.1029 23.5858 44.1029H37.3515C38.7544 44.1029 40.0696 43.6645 41.1217 42.8754C46.2948 39.1051 50.6788 34.0197 54.186 27.7944C54.3614 27.5314 54.3614 27.1807 54.2737 26.9176C54.186 26.6546 54.0107 26.3916 53.6599 26.2162C53.0462 25.9532 52.4324 25.7778 51.731 25.7778C50.2404 25.7778 48.8375 26.5669 48.0484 27.7944C47.8731 28.1452 46.7332 30.2495 46.0318 30.9509C44.8043 32.0907 41.2094 33.7567 40.0696 34.1951C39.6312 34.3704 39.1051 34.1951 38.842 33.7567C38.6667 33.3183 38.842 32.7922 39.2804 32.5291C41.4724 31.5647 44.0152 30.2495 44.7166 29.548C45.0673 29.285 45.8564 27.8821 46.3825 26.83C47.5223 24.9887 49.539 23.9365 51.6433 23.9365C52.6078 23.9365 53.4846 24.1119 54.3614 24.5503C55.0628 24.901 55.6766 25.5148 55.8519 26.3039C56.115 27.093 56.0273 27.8821 55.5889 28.5836C51.994 34.9842 47.4347 40.245 42.0862 44.1906C40.6833 45.2427 39.0174 45.7688 37.1761 45.7688H23.5858C22.972 45.7688 22.4459 45.8565 21.9198 46.0318C21.8322 46.2072 21.7445 46.2072 21.6568 46.2072Z" fill="white"/>
<path d="M37.1763 38.5791H25.6902C25.1641 38.5791 24.8134 38.1407 24.8134 37.7023C24.8134 37.2639 25.2518 36.8255 25.6902 36.8255H37.1763C38.2284 36.8255 39.1052 35.9487 39.1052 34.8966C39.1052 34.3705 38.9299 33.9321 38.4915 33.5814C38.1407 33.2307 37.6147 33.0553 37.0886 33.0553H31.0387C29.3728 33.0553 27.7068 32.5292 26.304 31.4771C25.4272 30.5126 24.1997 30.0742 22.8845 30.0742H18.5005C17.0099 30.0742 15.5194 30.6003 14.4672 31.6524L11.1354 34.8089C10.7846 35.1596 10.1709 35.1596 9.82017 34.8089C9.46945 34.4582 9.46945 33.8444 9.82017 33.4937L13.152 30.3372C14.5549 29.022 16.4838 28.2329 18.4128 28.2329H22.7968C24.4627 28.2329 26.1286 28.759 27.5315 29.8111C28.5836 30.6003 29.8112 31.0387 31.1264 31.0387H37.1763C38.1407 31.0387 39.1929 31.4771 39.8067 32.0908C40.5081 32.7923 40.9465 33.7567 40.9465 34.7212C40.9465 36.9132 39.2806 38.5791 37.1763 38.5791Z" fill="white"/>
<path d="M14.9932 54.8877C14.7302 54.8877 14.5548 54.8001 14.3795 54.6247L0.263039 40.6836C0.0876798 40.5083 0 40.3329 0 40.0699C0 39.8068 0.0876798 39.6315 0.263039 39.4561L3.94559 35.8612C5.08543 34.7214 7.10206 34.7214 8.2419 35.8612L19.2896 46.7335C19.9033 47.2596 20.1664 48.0487 20.1664 48.8378C20.1664 49.627 19.8156 50.4161 19.2896 51.0298L15.607 54.6247C15.4316 54.8001 15.2563 54.8877 14.9932 54.8877ZM2.192 40.0699L14.9932 52.6958L18.062 49.7146C18.3251 49.4516 18.4128 49.1886 18.4128 48.8378C18.4128 48.4871 18.3251 48.2241 18.062 47.961L6.92671 37.0887C6.48831 36.6503 5.61151 36.6503 5.17311 37.0887L2.192 40.0699Z" fill="white"/>
</svg>
