<svg width="18" height="18" viewBox="0 0 18 18" fill="none" xmlns="http://www.w3.org/2000/svg">
<path d="M2.18287 0C0.862976 0 0 0.866712 0 2.00588C0 3.1199 0.837268 4.01133 2.13223 4.01133H2.15728C3.50299 4.01133 4.34048 3.1199 4.34048 2.00588C4.31532 0.866712 3.50299 0 2.18287 0Z" fill="white"/>
<path d="M0.228027 5.59631H4.08665V17.2051H0.228027V5.59631Z" fill="white"/>
<path d="M13.5578 5.32385C11.4762 5.32385 10.0804 7.27986 10.0804 7.27986V5.59631H6.22168V17.2051H10.0802V10.7223C10.0802 10.3753 10.1053 10.0287 10.2073 9.78057C10.4862 9.08755 11.121 8.36959 12.187 8.36959C13.5833 8.36959 14.1417 9.43417 14.1417 10.9948V17.2051H18V10.5488C18 6.98312 16.0963 5.32385 13.5578 5.32385Z" fill="white"/>
</svg>
