<svg width="60" height="47" viewBox="0 0 60 47" fill="none" xmlns="http://www.w3.org/2000/svg">
<path d="M56.0611 31.1197H52.6806L46.6768 23.7815C45.9258 22.8632 44.8145 22.3366 43.6281 22.3366H31.1719V15.6545H42.3011C44.4731 15.6545 46.2402 13.8874 46.2402 11.7155V3.93903C46.2402 1.76707 44.4731 0 42.3011 0H35.2037C34.5566 0 34.0318 0.524767 34.0318 1.17188C34.0318 1.81899 34.5566 2.34375 35.2037 2.34375H42.3011C43.1809 2.34375 43.8964 3.0593 43.8964 3.93903V11.7155C43.8964 12.5952 43.1809 13.3108 42.3011 13.3108H17.699C16.8193 13.3108 16.1037 12.5952 16.1037 11.7155V3.93903C16.1037 3.0593 16.8193 2.34375 17.699 2.34375H24.8083C25.4554 2.34375 25.9802 1.81899 25.9802 1.17188C25.9802 0.524767 25.4554 0 24.8083 0H17.699C15.527 0 13.7599 1.76707 13.7599 3.93903V11.7155C13.7599 13.8874 15.527 15.6545 17.699 15.6545H28.8282V22.3366H16.3246C15.1382 22.3366 14.027 22.8632 13.276 23.7814L7.27208 31.1197H3.93903C1.76707 31.1197 0 32.8867 0 35.0588V42.8353C0 45.0072 1.76707 46.7743 3.93903 46.7743H11.7155C13.8874 46.7743 15.6545 45.0072 15.6545 42.8353V35.0588C15.6545 32.8869 13.8874 31.1198 11.7155 31.1198H10.3002L15.09 25.2654C15.3942 24.8936 15.8442 24.6804 16.3246 24.6804H28.8282V31.1198H26.1118C23.9398 31.1198 22.1727 32.8869 22.1727 35.0588V42.8353C22.1727 45.0072 23.9398 46.7743 26.1118 46.7743H33.8882C36.0602 46.7743 37.8273 45.0072 37.8273 42.8353V35.0588C37.8273 32.8869 36.0602 31.1198 33.8882 31.1198H31.1719V24.6804H43.6281C44.1085 24.6804 44.5584 24.8936 44.8627 25.2656L49.6524 31.1198H48.2845C46.1126 31.1198 44.3455 32.8869 44.3455 35.0588V42.8353C44.3455 45.0072 46.1126 46.7743 48.2845 46.7743H56.061C58.2329 46.7743 60 45.0072 60 42.8353V35.0588C60.0001 32.8867 58.233 31.1197 56.0611 31.1197ZM13.3109 35.0588V42.8353C13.3109 43.715 12.5953 44.4306 11.7156 44.4306H3.93903C3.0593 44.4306 2.34375 43.715 2.34375 42.8353V35.0588C2.34375 34.1791 3.0593 33.4635 3.93903 33.4635H11.7155C12.5952 33.4634 13.3109 34.1791 13.3109 35.0588ZM35.4836 35.0588V42.8353C35.4836 43.715 34.7681 44.4306 33.8883 44.4306H26.1118C25.232 44.4306 24.5165 43.715 24.5165 42.8353V35.0588C24.5165 34.1791 25.232 33.4635 26.1118 33.4635H33.8882C34.7681 33.4634 35.4836 34.1791 35.4836 35.0588ZM57.6564 42.8353C57.6564 43.715 56.9408 44.4306 56.0611 44.4306H48.2846C47.4049 44.4306 46.6894 43.715 46.6894 42.8353V35.0588C46.6894 34.1791 47.4049 33.4635 48.2846 33.4635H56.0611C56.9408 33.4635 57.6564 34.1791 57.6564 35.0588V42.8353Z" fill="#038CBF"/>
<path d="M28.9183 1.61942C29.1605 2.20993 29.8591 2.49763 30.4476 2.25341C31.037 2.00884 31.3266 1.31426 31.0816 0.723989C30.8365 0.133831 30.1427 -0.155974 29.5511 0.0888308C28.9623 0.332464 28.6736 1.03161 28.9183 1.61942Z" fill="#038CBF"/>
</svg>
