<svg width="60" height="48" viewBox="0 0 60 48" fill="none" xmlns="http://www.w3.org/2000/svg">
<path d="M16.5533 20.625H4.07168C1.82648 20.625 0 18.7985 0 16.5533V4.07168C0 1.82648 1.82648 0 4.07168 0H16.5533C18.7985 0 20.625 1.82648 20.625 4.07168V16.5533C20.625 18.7985 18.7985 20.625 16.5533 20.625ZM4.07168 3.75C3.89426 3.75 3.75 3.89426 3.75 4.07168V16.5533C3.75 16.7307 3.89426 16.875 4.07168 16.875H16.5533C16.7307 16.875 16.875 16.7307 16.875 16.5533V4.07168C16.875 3.89426 16.7307 3.75 16.5533 3.75H4.07168Z" fill="#038CBF"/>
<path d="M16.5533 47.8125H4.07168C1.82648 47.8125 0 45.986 0 43.7408V31.2592C0 29.014 1.82648 27.1875 4.07168 27.1875H16.5533C18.7985 27.1875 20.625 29.014 20.625 31.2592V43.7408C20.625 45.986 18.7985 47.8125 16.5533 47.8125ZM4.07168 30.9375C3.89426 30.9375 3.75 31.0818 3.75 31.2592V43.7408C3.75 43.9182 3.89426 44.0625 4.07168 44.0625H16.5533C16.7307 44.0625 16.875 43.9182 16.875 43.7408V31.2592C16.875 31.0818 16.7307 30.9375 16.5533 30.9375H4.07168Z" fill="#038CBF"/>
<path d="M58.125 9.375H28.125C27.0895 9.375 26.25 8.53547 26.25 7.5C26.25 6.46453 27.0895 5.625 28.125 5.625H58.125C59.1605 5.625 60 6.46453 60 7.5C60 8.53547 59.1605 9.375 58.125 9.375Z" fill="#038CBF"/>
<path d="M47.8125 16.4062H28.125C27.0895 16.4062 26.25 15.5667 26.25 14.5312C26.25 13.4958 27.0895 12.6562 28.125 12.6562H47.8125C48.848 12.6562 49.6875 13.4958 49.6875 14.5312C49.6875 15.5667 48.848 16.4062 47.8125 16.4062Z" fill="#038CBF"/>
<path d="M58.125 36.0938H28.125C27.0895 36.0938 26.25 35.2542 26.25 34.2188C26.25 33.1833 27.0895 32.3438 28.125 32.3438H58.125C59.1605 32.3438 60 33.1833 60 34.2188C60 35.2542 59.1605 36.0938 58.125 36.0938Z" fill="#038CBF"/>
<path d="M47.8125 43.5938H28.125C27.0895 43.5938 26.25 42.7542 26.25 41.7188C26.25 40.6833 27.0895 39.8438 28.125 39.8438H47.8125C48.848 39.8438 49.6875 40.6833 49.6875 41.7188C49.6875 42.7542 48.848 43.5938 47.8125 43.5938Z" fill="#038CBF"/>
</svg>
