<svg width="60" height="46" viewBox="0 0 60 46" fill="none" xmlns="http://www.w3.org/2000/svg">
<path d="M57.5676 28.8417H52.8185V22.7027C52.8185 22.0077 52.3552 21.5444 51.6602 21.5444H31.1583V16.5637H35.9073C37.2973 16.5637 38.3398 15.5212 38.3398 14.1313V2.43243C38.3398 1.04247 37.2973 0 35.9073 0H24.0927C22.7027 0 21.6602 1.04247 21.6602 2.43243V14.2471C21.6602 15.6371 22.7027 16.6795 24.0927 16.6795H28.8417V21.5444H8.33977C7.64479 21.5444 7.18147 22.0077 7.18147 22.7027V28.8417H2.43243C1.04247 28.8417 0 29.8842 0 31.2741V43.0888C0 44.4788 1.04247 45.5212 2.43243 45.5212H14.2471C15.6371 45.5212 16.6795 44.4788 16.6795 43.0888V31.2741C16.6795 29.8842 15.6371 28.8417 14.2471 28.8417H9.49807V23.861H28.8417V28.8417H24.0927C22.7027 28.8417 21.6602 29.8842 21.6602 31.2741V43.0888C21.6602 44.4788 22.7027 45.5212 24.0927 45.5212H35.9073C37.2973 45.5212 38.3398 44.4788 38.3398 43.0888V31.2741C38.3398 29.8842 37.2973 28.8417 35.9073 28.8417H31.1583V23.861H50.5019V28.8417H45.7529C44.3629 28.8417 43.3205 29.8842 43.3205 31.2741V43.0888C43.3205 44.4788 44.3629 45.5212 45.7529 45.5212H57.5676C58.9575 45.5212 60 44.4788 60 43.0888V31.2741C60 29.8842 58.8417 28.8417 57.5676 28.8417ZM14.3629 31.2741C14.2471 31.1583 14.3629 31.1583 14.3629 31.2741V43.0888C14.3629 43.2046 14.3629 43.2046 14.2471 43.2046H2.43243C2.3166 43.2046 2.3166 43.2046 2.3166 43.0888V31.2741C2.3166 31.1583 2.3166 31.1583 2.43243 31.1583L14.3629 31.2741ZM36.0232 31.2741C35.9073 31.1583 36.0232 31.1583 36.0232 31.2741V43.0888C36.0232 43.2046 36.0232 43.2046 35.9073 43.2046H24.0927C23.9768 43.2046 23.9768 43.2046 23.9768 43.0888V31.2741C23.9768 31.1583 23.9768 31.1583 24.0927 31.1583L36.0232 31.2741ZM23.9768 14.1313C23.9768 14.2471 24.0927 14.2471 23.9768 14.1313V2.43243C23.9768 2.3166 23.9768 2.3166 24.0927 2.3166H35.9073C36.0232 2.3166 36.0232 2.3166 36.0232 2.43243V14.2471C36.0232 14.3629 36.0232 14.3629 35.9073 14.3629L23.9768 14.1313ZM57.6834 42.973C57.5676 43.0888 57.6834 43.0888 57.6834 42.973L45.7529 43.0888C45.6371 43.0888 45.6371 43.0888 45.6371 42.973V31.2741C45.6371 31.1583 45.6371 31.1583 45.7529 31.1583H57.5676C57.6834 31.1583 57.6834 31.1583 57.6834 31.2741V42.973Z" fill="#038CBF"/>
</svg>
