<svg width="60" height="60" viewBox="0 0 60 60" fill="none" xmlns="http://www.w3.org/2000/svg">
<path d="M11.6468 5.8064C8.44453 5.8064 5.84033 8.41059 5.84033 11.6128C5.84033 14.8151 8.44453 17.4193 11.6468 17.4193C14.849 17.4193 17.4532 14.8151 17.4532 11.6128C17.4532 8.41059 14.849 5.8064 11.6468 5.8064ZM11.6468 15.4838C9.51194 15.4838 7.77582 13.7477 7.77582 11.6128C7.77582 9.47801 9.51194 7.74188 11.6468 7.74188C13.7816 7.74188 15.5178 9.47801 15.5178 11.6128C15.5178 13.7477 13.7816 15.4838 11.6468 15.4838Z" fill="#038CBF"/>
<path d="M54.8776 46.1343L53.5092 44.7659L46.4515 51.8236L45.2002 50.5723L43.8318 51.9407L46.4515 54.5604L54.8776 46.1343Z" fill="#038CBF"/>
<path d="M32.9033 10.6113H34.8388V12.5468H32.9033V10.6113Z" fill="#038CBF"/>
<path d="M44.5161 10.6113H46.4516V12.5468H44.5161V10.6113Z" fill="#038CBF"/>
<path d="M40.6453 10.6113H42.5807V12.5468H40.6453V10.6113Z" fill="#038CBF"/>
<path d="M36.7742 10.6113H38.7097V12.5468H36.7742V10.6113Z" fill="#038CBF"/>
<path d="M22.2581 34.8048H37.7419C39.3426 34.8048 40.6452 33.5023 40.6452 31.9016V30.9339H53.2258C56.9603 30.9339 60 27.8952 60 24.1597V17.3855C60 13.65 56.9603 10.6113 53.2258 10.6113H50.3226V9.64355C50.3226 8.0429 49.02 6.74032 47.4194 6.74032H31.9355C30.3348 6.74032 29.0323 8.0429 29.0323 9.64355V10.6113H23.2597V8.93903L20.7194 8.24516C20.6361 8.02258 20.5432 7.80097 20.4426 7.58226L21.75 5.29258L17.9681 1.51065L15.6794 2.8171C15.4597 2.71645 15.239 2.62355 15.0165 2.54032L14.3216 0H8.9729L8.27806 2.54032C8.05548 2.62355 7.83484 2.71548 7.61613 2.8171L5.32645 1.51065L1.54452 5.29258L2.85097 7.58226C2.75032 7.80097 2.65742 8.02258 2.57419 8.24516L0.0338709 8.93903V14.2868L2.57419 14.9816C2.65742 15.2042 2.75032 15.4258 2.85097 15.6445L1.54355 17.9342L5.32548 21.7152L7.61516 20.4087C7.83387 20.5094 8.05452 20.6023 8.2771 20.6855L8.97194 23.2258H14.3206L15.0155 20.6855C15.2371 20.6023 15.4587 20.5094 15.6784 20.4087L17.9671 21.7142L21.749 17.9332L20.4416 15.6435C20.5423 15.4248 20.6352 15.2032 20.7184 14.9806L23.2587 14.2858V12.5468H29.0323V13.5145C29.0323 15.1152 30.3348 16.4177 31.9355 16.4177H47.4194C49.02 16.4177 50.3226 15.1152 50.3226 13.5145V12.5468H53.2258C55.8939 12.5468 58.0645 14.7174 58.0645 17.3855V24.1597C58.0645 26.8277 55.8939 28.9984 53.2258 28.9984H40.6452V28.0306C40.6452 26.43 39.3426 25.1274 37.7419 25.1274H22.2581C20.6574 25.1274 19.3548 26.43 19.3548 28.0306V28.9984H6.77419C3.03968 28.9984 0 32.0381 0 35.7726V43.5145C0 47.249 3.03968 50.2887 6.77419 50.2887H9.67742V51.2565C9.67742 52.8571 10.98 54.1597 12.5806 54.1597H28.0645C29.6652 54.1597 30.9677 52.8571 30.9677 51.2565V50.2887H38.759C39.2497 55.7061 43.8116 59.9661 49.3548 59.9661C55.2242 59.9661 60 55.1903 60 49.321C60 43.4516 55.2242 38.6758 49.3548 38.6758C43.8116 38.6758 39.2497 42.9358 38.759 48.3532H30.9677V47.3855C30.9677 45.7848 29.6652 44.4823 28.0645 44.4823H12.5806C10.98 44.4823 9.67742 45.7848 9.67742 47.3855V48.3532H6.77419C4.10613 48.3532 1.93548 46.1826 1.93548 43.5145V35.7726C1.93548 33.1045 4.10613 30.9339 6.77419 30.9339H19.3548V31.9016C19.3548 33.5023 20.6574 34.8048 22.2581 34.8048ZM21.3242 12.81L19.2019 13.3906L19.0461 13.8987C18.9068 14.3468 18.721 14.7929 18.4926 15.2245L18.2429 15.6948L19.3365 17.61L17.6448 19.3026L15.7287 18.21L15.2594 18.4587C14.8287 18.6871 14.3826 18.8729 13.9335 19.0113L13.4265 19.1681L12.8448 21.2903H10.4516L9.87 19.1681L9.3629 19.0113C8.91581 18.8729 8.46968 18.6881 8.0371 18.4587L7.56677 18.21L5.65161 19.3026L3.95806 17.61L5.05161 15.6948L4.80194 15.2245C4.57355 14.7929 4.38677 14.3468 4.24839 13.8987L4.09258 13.3906L1.97032 12.81V10.4158L4.09258 9.83613L4.24935 9.32806C4.38774 8.88 4.57355 8.43387 4.80194 8.00323L5.05161 7.53194L3.95806 5.61677L5.64968 3.92419L7.56484 5.01677L8.03516 4.76806C8.46968 4.53871 8.91581 4.35194 9.36097 4.21452L9.86806 4.05774L10.4497 1.93548H12.8429L13.4245 4.05774L13.9316 4.21452C14.3787 4.3529 14.8248 4.53871 15.2574 4.76806L15.7268 5.01677L17.6429 3.92419L19.3345 5.61677L18.241 7.53194L18.4906 8.00226C18.719 8.4329 18.9058 8.87903 19.0432 9.3271L19.2 9.83516L21.3223 10.4148V12.81H21.3242ZM48.3871 13.5145C48.3871 14.0477 47.9535 14.4823 47.4194 14.4823H31.9355C31.4013 14.4823 30.9677 14.0477 30.9677 13.5145V9.64355C30.9677 9.11032 31.4013 8.67581 31.9355 8.67581H47.4194C47.9535 8.67581 48.3871 9.11032 48.3871 9.64355V13.5145ZM49.3548 40.6113C54.1577 40.6113 58.0645 44.5181 58.0645 49.321C58.0645 54.1239 54.1577 58.0306 49.3548 58.0306C44.5519 58.0306 40.6452 54.1239 40.6452 49.321C40.6452 44.5181 44.5519 40.6113 49.3548 40.6113ZM11.6129 47.3855C11.6129 46.8513 12.0465 46.4177 12.5806 46.4177H28.0645C28.5987 46.4177 29.0323 46.8513 29.0323 47.3855V51.2565C29.0323 51.7906 28.5987 52.2242 28.0645 52.2242H12.5806C12.0465 52.2242 11.6129 51.7906 11.6129 51.2565V47.3855ZM21.2903 28.0306C21.2903 27.4974 21.7239 27.0629 22.2581 27.0629H37.7419C38.2761 27.0629 38.7097 27.4974 38.7097 28.0306V31.9016C38.7097 32.4358 38.2761 32.8694 37.7419 32.8694H22.2581C21.7239 32.8694 21.2903 32.4358 21.2903 31.9016V28.0306Z" fill="#038CBF"/>
<path d="M30.9678 28.9983H32.9033V30.9338H30.9678V28.9983Z" fill="#038CBF"/>
<path d="M27.0967 28.9983H29.0322V30.9338H27.0967V28.9983Z" fill="#038CBF"/>
<path d="M23.2258 28.9983H25.1613V30.9338H23.2258V28.9983Z" fill="#038CBF"/>
<path d="M34.8386 28.9983H36.7741V30.9338H34.8386V28.9983Z" fill="#038CBF"/>
<path d="M17.4194 48.3533H19.3549V50.2888H17.4194V48.3533Z" fill="#038CBF"/>
<path d="M25.1614 48.3533H27.0969V50.2888H25.1614V48.3533Z" fill="#038CBF"/>
<path d="M21.2903 48.3533H23.2258V50.2888H21.2903V48.3533Z" fill="#038CBF"/>
<path d="M13.5483 48.3533H15.4838V50.2888H13.5483V48.3533Z" fill="#038CBF"/>
</svg>
