<svg width="60" height="60" viewBox="0 0 60 60" fill="none" xmlns="http://www.w3.org/2000/svg">
<path d="M30.9186 11.9907C17.6825 11.9907 6.91406 22.7592 6.91406 35.9954C6.91406 49.2316 17.6825 60 30.9186 60C44.1547 60 54.9232 49.2315 54.9232 35.9954C54.9232 22.7593 44.1548 11.9907 30.9186 11.9907ZM30.9186 56.4843C19.621 56.4843 10.4297 47.293 10.4297 35.9954C10.4297 24.6978 19.621 15.5065 30.9186 15.5065C42.2162 15.5065 51.4076 24.6978 51.4076 35.9954C51.4076 47.293 42.2163 56.4843 30.9186 56.4843Z" fill="#038CBF"/>
<path d="M41.4017 40.4595C40.6648 39.8275 39.555 39.9123 38.923 40.6493C36.9158 42.9893 33.9983 44.3315 30.9185 44.3315C27.839 44.3315 24.9215 42.9895 22.9143 40.6495C22.2822 39.9126 21.1725 39.8277 20.4357 40.4597C19.6988 41.0918 19.6138 42.2016 20.2459 42.9384C22.9218 46.0579 26.8119 47.8471 30.9187 47.8471C35.0255 47.8471 38.9157 46.0579 41.5915 42.9381C42.2235 42.2014 42.1385 41.0916 41.4017 40.4595Z" fill="#038CBF"/>
<path d="M21.1602 33.2306C22.1309 33.2306 22.918 32.4436 22.918 31.4728C22.918 30.9092 23.3765 30.4507 23.9401 30.4507C24.5036 30.4507 24.9622 30.9092 24.9622 31.4728C24.9622 32.4436 25.7492 33.2306 26.72 33.2306C27.6908 33.2306 28.4778 32.4436 28.4778 31.4728C28.4778 28.9707 26.4421 26.9351 23.9401 26.9351C21.438 26.9351 19.4023 28.9707 19.4023 31.4728C19.4023 32.4437 20.1894 33.2306 21.1602 33.2306Z" fill="#038CBF"/>
<path d="M37.8973 26.9351C35.3953 26.9351 33.3596 28.9707 33.3596 31.4728C33.3596 32.4436 34.1467 33.2306 35.1174 33.2306C36.0882 33.2306 36.8752 32.4436 36.8752 31.4728C36.8752 30.9092 37.3338 30.4507 37.8973 30.4507C38.4609 30.4507 38.9195 30.9092 38.9195 31.4728C38.9195 32.4436 39.7065 33.2306 40.6773 33.2306C41.6481 33.2306 42.4351 32.4436 42.4351 31.4728C42.4351 28.9706 40.3994 26.9351 37.8973 26.9351Z" fill="#038CBF"/>
<path d="M45.4009 9.87427H47.9653C48.9361 9.87427 49.7231 9.08724 49.7231 8.11645C49.7231 7.14567 48.9361 6.35864 47.9653 6.35864H45.4009C44.4301 6.35864 43.6431 7.14567 43.6431 8.11645C43.6431 9.08724 44.4301 9.87427 45.4009 9.87427Z" fill="#038CBF"/>
<path d="M51.8215 16.2329C52.7923 16.2329 53.5793 15.4458 53.5793 14.4751V11.9106C53.5793 10.9399 52.7923 10.1528 51.8215 10.1528C50.8508 10.1528 50.0637 10.9399 50.0637 11.9106V14.4751C50.0637 15.446 50.8508 16.2329 51.8215 16.2329Z" fill="#038CBF"/>
<path d="M58.2421 6.35864H55.6777C54.707 6.35864 53.9199 7.14567 53.9199 8.11645C53.9199 9.08724 54.707 9.87427 55.6777 9.87427H58.2421C59.2129 9.87427 60 9.08724 60 8.11645C60 7.14567 59.2129 6.35864 58.2421 6.35864Z" fill="#038CBF"/>
<path d="M51.8215 6.08004C52.7923 6.08004 53.5793 5.29301 53.5793 4.32222V1.75781C53.5793 0.787031 52.7923 0 51.8215 0C50.8508 0 50.0637 0.787031 50.0637 1.75781V4.32222C50.0637 5.29301 50.8508 6.08004 51.8215 6.08004Z" fill="#038CBF"/>
<path d="M3.80508 8.70239H1.75781C0.787031 8.70239 0 9.48942 0 10.4602C0 11.431 0.787031 12.218 1.75781 12.218H3.80508C4.77586 12.218 5.56289 11.431 5.56289 10.4602C5.56289 9.48942 4.77586 8.70239 3.80508 8.70239Z" fill="#038CBF"/>
<path d="M9.22754 16.1227V14.0754C9.22754 13.1047 8.44051 12.3176 7.46973 12.3176C6.49894 12.3176 5.71191 13.1047 5.71191 14.0754V16.1227C5.71191 17.0935 6.49894 17.8805 7.46973 17.8805C8.44051 17.8805 9.22754 17.0935 9.22754 16.1227Z" fill="#038CBF"/>
<path d="M11.1343 12.218H13.1815C14.1523 12.218 14.9394 11.431 14.9394 10.4602C14.9394 9.48942 14.1523 8.70239 13.1815 8.70239H11.1343C10.1635 8.70239 9.37646 9.48942 9.37646 10.4602C9.37646 11.431 10.1635 12.218 11.1343 12.218Z" fill="#038CBF"/>
<path d="M7.46973 8.60293C8.44051 8.60293 9.22754 7.8159 9.22754 6.84512V4.79785C9.22754 3.82707 8.44051 3.04004 7.46973 3.04004C6.49894 3.04004 5.71191 3.82707 5.71191 4.79785V6.84512C5.71191 7.8159 6.49894 8.60293 7.46973 8.60293Z" fill="#038CBF"/>
</svg>
