<svg width="60" height="60" viewBox="0 0 60 60" fill="none" xmlns="http://www.w3.org/2000/svg">
<path d="M54.6094 45.9375C55.5802 45.9375 56.3672 45.1505 56.3672 44.1797V1.75781C56.3672 0.787031 55.5802 0 54.6094 0H47.5781C46.6073 0 45.8203 0.787031 45.8203 1.75781V44.1797C45.8203 45.1505 46.6073 45.9375 47.5781 45.9375H54.6094ZM49.3359 3.51562H52.8516V42.4219H49.3359V3.51562Z" fill="#038CBF"/>
<path d="M40.5469 45.9375C41.5177 45.9375 42.3047 45.1505 42.3047 44.1797V9.02344C42.3047 8.05266 41.5177 7.26562 40.5469 7.26562H33.5156C32.5448 7.26562 31.7578 8.05266 31.7578 9.02344V44.1797C31.7578 45.1505 32.5448 45.9375 33.5156 45.9375H40.5469ZM35.2734 10.7812H38.7891V42.4219H35.2734V10.7812Z" fill="#038CBF"/>
<path d="M26.4844 45.9375C27.4552 45.9375 28.2422 45.1505 28.2422 44.1797V16.0547C28.2422 15.0839 27.4552 14.2969 26.4844 14.2969H19.4531C18.4823 14.2969 17.6953 15.0839 17.6953 16.0547V44.1797C17.6953 45.1505 18.4823 45.9375 19.4531 45.9375H26.4844ZM21.2109 17.8125H24.7266V42.4219H21.2109V17.8125Z" fill="#038CBF"/>
<path d="M12.4219 45.9375C13.3927 45.9375 14.1797 45.1505 14.1797 44.1797V23.0859C14.1797 22.1152 13.3927 21.3281 12.4219 21.3281H5.39062C4.41984 21.3281 3.63281 22.1152 3.63281 23.0859V44.1797C3.63281 45.1505 4.41984 45.9375 5.39062 45.9375H12.4219ZM7.14844 24.8438H10.6641V42.4219H7.14844V24.8438Z" fill="#038CBF"/>
<path d="M58.2422 52.9688H42.0023C41.2767 50.9229 39.3229 49.4531 37.0312 49.4531C34.7396 49.4531 32.7858 50.9229 32.0602 52.9688H1.75781C0.787031 52.9688 0 53.7558 0 54.7266C0 55.6973 0.787031 56.4844 1.75781 56.4844H32.0602C32.7858 58.5302 34.7396 60 37.0312 60C39.3229 60 41.2767 58.5302 42.0023 56.4844H58.2422C59.213 56.4844 60 55.6973 60 54.7266C60 53.7558 59.213 52.9688 58.2422 52.9688ZM37.0312 56.4844C36.0627 56.4844 35.2748 55.697 35.2736 54.7288C35.2736 54.728 35.2737 54.7273 35.2737 54.7266C35.2737 54.7259 35.2736 54.725 35.2736 54.7243C35.2748 53.7561 36.0627 52.9688 37.0312 52.9688C38.0005 52.9688 38.7891 53.7573 38.7891 54.7266C38.7891 55.6958 38.0005 56.4844 37.0312 56.4844Z" fill="#038CBF"/>
</svg>
