<svg width="60" height="60" viewBox="0 0 60 60" fill="none" xmlns="http://www.w3.org/2000/svg">
<path d="M28.4712 48.3508H11.1852C10.3428 48.3508 9.65991 49.0337 9.65991 49.8761C9.65991 50.7184 10.3428 51.4013 11.1852 51.4013H28.4712C29.3136 51.4013 29.9965 50.7184 29.9965 49.8761C29.9965 49.0337 29.3136 48.3508 28.4712 48.3508Z" fill="#038CBF"/>
<path d="M18.303 41.2329H11.1852C10.3428 41.2329 9.65991 41.9158 9.65991 42.7582C9.65991 43.6005 10.3428 44.2834 11.1852 44.2834H18.303C19.1453 44.2834 19.8282 43.6005 19.8282 42.7582C19.8282 41.9158 19.1453 41.2329 18.303 41.2329Z" fill="#038CBF"/>
<path d="M26.6815 37.5318C26.128 37.5271 25.5809 37.4134 25.0714 37.197C24.5619 36.9807 24.1001 36.6659 23.7124 36.2709C23.179 35.7556 22.7966 35.1043 22.6067 34.3874C22.4167 33.6706 22.4263 32.9154 22.6346 32.2036L24.2818 26.733C24.5705 25.7659 25.0945 24.8855 25.8071 24.1706L48.7061 1.29199C49.1141 0.882473 49.5991 0.557544 50.133 0.335835C50.667 0.114127 51.2394 0 51.8175 0C52.3957 0 52.9681 0.114127 53.5021 0.335835C54.036 0.557544 54.5209 0.882473 54.929 1.29199L58.6303 4.99325C59.4557 5.80824 59.9424 6.90519 59.9928 8.06407C60.027 8.64139 59.9376 9.21936 59.7307 9.75941C59.5238 10.2995 59.2041 10.7892 58.793 11.1959L35.8533 34.1966C35.1385 34.9091 34.2581 35.4332 33.2909 35.7218L27.8204 37.3691C27.4504 37.477 27.0669 37.5318 26.6815 37.5318ZM51.6955 2.95959C51.545 2.95629 51.3954 2.98341 51.2556 3.03932C51.1158 3.09523 50.9888 3.17878 50.8821 3.28497L27.9627 26.2856C27.6102 26.6442 27.3517 27.0843 27.2103 27.5668L25.563 33.0374C25.5171 33.2298 25.5231 33.4309 25.5802 33.6202C25.6374 33.8096 25.7437 33.9804 25.8884 34.1152C26.022 34.2617 26.1927 34.3693 26.3825 34.4266C26.5722 34.4838 26.7739 34.4887 26.9662 34.4406L32.4368 32.7933C32.9193 32.652 33.3595 32.3935 33.718 32.0409L56.617 9.12157C56.7273 9.00939 56.8131 8.87558 56.8691 8.72858C56.9251 8.58157 56.9501 8.42456 56.9424 8.26743C56.9185 7.86181 56.7358 7.4819 56.4339 7.20993L52.7734 3.50868C52.4834 3.21389 52.0886 3.04575 51.6752 3.04093L51.6955 2.95959Z" fill="#038CBF"/>
<path d="M43.3113 8.74609L45.4683 6.58907L53.3774 14.4981L51.2204 16.6552L43.3113 8.74609Z" fill="#038CBF"/>
<path d="M44.6388 59.536H7.21948C6.27141 59.536 5.33262 59.3493 4.45671 58.9865C3.5808 58.6236 2.78493 58.0919 2.11454 57.4215C1.44415 56.7511 0.912364 55.9552 0.549551 55.0793C0.186738 54.2034 0 53.2646 0 52.3165V14.8972C0 12.9825 0.760622 11.1462 2.11454 9.79227C3.46845 8.43836 5.30476 7.67773 7.21948 7.67773H28.4712C28.8757 7.67773 29.2637 7.83843 29.5497 8.12447C29.8358 8.41051 29.9964 8.79846 29.9964 9.20298C29.9964 9.6075 29.8358 9.99545 29.5497 10.2815C29.2637 10.5675 28.8757 10.7282 28.4712 10.7282H7.21948C6.14077 10.7282 5.10623 11.1567 4.34346 11.9195C3.58069 12.6823 3.15217 13.7168 3.15217 14.7955V52.2148C3.15217 53.2936 3.58069 54.3281 4.34346 55.0909C5.10623 55.8536 6.14077 56.2822 7.21948 56.2822H44.6388C45.7175 56.2822 46.752 55.8536 47.5148 55.0909C48.2776 54.3281 48.7061 53.2936 48.7061 52.2148V31.0648C48.7061 30.6603 48.8668 30.2723 49.1528 29.9863C49.4389 29.7003 49.8268 29.5396 50.2313 29.5396C50.6359 29.5396 51.0238 29.7003 51.3099 29.9863C51.5959 30.2723 51.7566 30.6603 51.7566 31.0648V52.3165C51.7568 54.2138 51.0101 56.0348 49.6781 57.3859C48.3461 58.7369 46.5358 59.5093 44.6388 59.536Z" fill="#038CBF"/>
</svg>
