<svg width="60" height="60" viewBox="0 0 60 60" fill="none" xmlns="http://www.w3.org/2000/svg">
<path d="M43.75 60C34.79 60 27.5 52.71 27.5 43.75C27.5 34.79 34.79 27.5 43.75 27.5C52.71 27.5 60 34.79 60 43.75C60 52.71 52.71 60 43.75 60ZM43.75 30C36.1675 30 30 36.17 30 43.75C30 51.33 36.1675 57.5 43.75 57.5C51.3325 57.5 57.5 51.33 57.5 43.75C57.5 36.17 51.3325 30 43.75 30Z" fill="#038CBF"/>
<path d="M43.75 52.5C43.06 52.5 42.5 51.94 42.5 51.25V41.25C42.5 40.56 43.06 40 43.75 40C44.44 40 45 40.56 45 41.25V51.25C45 51.94 44.44 52.5 43.75 52.5Z" fill="#038CBF"/>
<path d="M43.75 37.5C44.4404 37.5 45 36.9404 45 36.25C45 35.5596 44.4404 35 43.75 35C43.0596 35 42.5 35.5596 42.5 36.25C42.5 36.9404 43.0596 37.5 43.75 37.5Z" fill="#038CBF"/>
<path d="M23.75 52.5H6.25C2.805 52.5 0 49.6975 0 46.25V13.75C0 10.3025 2.805 7.5 6.25 7.5H11.25C11.94 7.5 12.5 8.06 12.5 8.75C12.5 9.44 11.94 10 11.25 10H6.25C4.1825 10 2.5 11.6825 2.5 13.75V46.25C2.5 48.3175 4.1825 50 6.25 50H23.75C24.44 50 25 50.56 25 51.25C25 51.94 24.44 52.5 23.75 52.5Z" fill="#038CBF"/>
<path d="M28.75 15H13.75C11.6825 15 10 13.3175 10 11.25V6.25C10 5.56 10.56 5 11.25 5H15.125C15.7075 2.15 18.23 0 21.25 0C24.27 0 26.7925 2.15 27.375 5H31.25C31.94 5 32.5 5.56 32.5 6.25V11.25C32.5 13.3175 30.8175 15 28.75 15ZM12.5 7.5V11.25C12.5 11.9375 13.06 12.5 13.75 12.5H28.75C29.44 12.5 30 11.9375 30 11.25V7.5H26.25C25.56 7.5 25 6.94 25 6.25C25 4.1825 23.3175 2.5 21.25 2.5C19.1825 2.5 17.5 4.1825 17.5 6.25C17.5 6.94 16.94 7.5 16.25 7.5H12.5Z" fill="#038CBF"/>
<path d="M33.75 22.5H8.75C8.06 22.5 7.5 21.94 7.5 21.25C7.5 20.56 8.06 20 8.75 20H33.75C34.44 20 35 20.56 35 21.25C35 21.94 34.44 22.5 33.75 22.5Z" fill="#038CBF"/>
<path d="M26.25 30H8.75C8.06 30 7.5 29.44 7.5 28.75C7.5 28.06 8.06 27.5 8.75 27.5H26.25C26.94 27.5 27.5 28.06 27.5 28.75C27.5 29.44 26.94 30 26.25 30Z" fill="#038CBF"/>
<path d="M21.25 37.5H8.75C8.06 37.5 7.5 36.94 7.5 36.25C7.5 35.56 8.06 35 8.75 35H21.25C21.94 35 22.5 35.56 22.5 36.25C22.5 36.94 21.94 37.5 21.25 37.5Z" fill="#038CBF"/>
<path d="M41.25 22.5C40.56 22.5 40 21.94 40 21.25V13.75C40 11.6825 38.3175 10 36.25 10H31.25C30.56 10 30 9.44 30 8.75C30 8.06 30.56 7.5 31.25 7.5H36.25C39.695 7.5 42.5 10.3025 42.5 13.75V21.25C42.5 21.94 41.94 22.5 41.25 22.5Z" fill="#038CBF"/>
</svg>
